<?xml version="1.0"?>
<svg width="122.88" height="65.27" xmlns="http://www.w3.org/2000/svg" xmlns:svg="http://www.w3.org/2000/svg" enable-background="new 0 0 122.88 65.27" version="1.1" xml:space="preserve">
 <style type="text/css">.st0{fill-rule:evenodd;clip-rule:evenodd;}</style>
 <g class="layer">
  <title>Layer 1</title>
  <g id="svg_1" transform="translate(-1 -0.999881) scale(1 1.09195) translate(1 0.999881) translate(0 0.00011903) matrix(1.00814 0 0 0.969349 0 -0.000115382)">
   <path class="st0" d="m65.43,5.59c2.25,-2.17 5.22,-3.82 8.46,-4.74c3.45,-0.98 7.27,-1.16 10.92,-0.29c3.72,0.9 7.24,2.89 9.99,6.24c2.7,3.29 4.63,7.87 5.2,13.96c10.85,4.17 17.39,11.18 20.56,18.83c1.46,3.53 2.2,7.21 2.3,10.79c0.1,3.59 -0.43,7.11 -1.51,10.32c-0.15,0.44 -0.3,0.86 -0.47,1.29l-0.28,0c0,1.8 -1.46,3.26 -3.26,3.26l-114.08,0c-1.8,0 -3.26,-1.46 -3.26,-3.26c0,-0.11 0.01,-0.21 0.02,-0.32c-0.04,-1.14 -0.02,-2.31 0.07,-3.47c0.38,-5.32 2.02,-10.53 4.65,-14.85c2.89,-4.75 6.99,-8.45 11.98,-10.16c-0.07,-8.89 2.8,-16.12 7.34,-21.51c2.81,-3.34 6.26,-5.96 10.05,-7.81c3.78,-1.85 7.89,-2.94 12.03,-3.24c6.7,-0.46 13.54,1.13 19.29,4.96l0,0zm-0.75,27.7c3.18,0 5.77,2.58 5.77,5.77c0,3.18 -2.58,5.77 -5.77,5.77c-3.18,0 -5.77,-2.58 -5.77,-5.77c0,-3.19 2.58,-5.77 5.77,-5.77l0,0zm-10.42,-14.1c1,0 1.82,0.81 1.82,1.82c0,1 -0.81,1.82 -1.82,1.82s-1.82,-0.81 -1.82,-1.82c0,-1.01 0.82,-1.82 1.82,-1.82l0,0zm40.01,21.62c3.18,0 5.77,2.58 5.77,5.77c0,3.18 -2.58,5.77 -5.77,5.77c-3.18,0 -5.77,-2.58 -5.77,-5.77c0,-3.19 2.58,-5.77 5.77,-5.77l0,0zm-15.26,-24.49c1.63,-0.81 3.6,-0.15 4.42,1.47c0.81,1.63 0.15,6.79 -1.47,7.61c-1.63,0.81 -3.6,-3.03 -4.42,-4.66c-0.81,-1.63 -0.15,-3.61 1.47,-4.42l0,0l0,0zm-51.53,36.81c1,0 1.82,0.81 1.82,1.82c0,1 -0.81,1.82 -1.82,1.82c-1,0 -1.82,-0.81 -1.82,-1.82c0.01,-1.01 0.82,-1.82 1.82,-1.82l0,0zm2.04,-24.26c1.47,-0.74 3.26,-0.14 4,1.33c0.74,1.47 0.14,3.26 -1.33,4c-1.47,0.74 -3.26,0.14 -4,-1.33c-0.74,-1.48 -0.14,-3.27 1.33,-4l0,0l0,0zm16.04,19.43c1.65,0 2.98,1.33 2.98,2.98c0,1.65 -1.33,2.98 -2.98,2.98c-1.65,0 -2.98,-1.33 -2.98,-2.98c0,-1.65 1.33,-2.98 2.98,-2.98l0,0z" fill="#592b00" id="svg_2"/>
  </g>
 </g>
</svg>